<svg width="1869" height="2707" viewBox="0 0 1869 2707" fill="none" xmlns="http://www.w3.org/2000/svg">
<g clip-path="url(#clip0_375_8139)">
<rect width="2707" height="1869" transform="matrix(0 1 -1 0 1869 0)" fill="#E5E7EB"/>
<rect x="1181" y="143" width="525" height="894" transform="rotate(90 1181 143)" fill="#FEFBF6"/>
<rect x="1261" y="143" width="525" height="80" transform="rotate(90 1261 143)" fill="#FEFBF6"/>
<rect x="1177.5" y="164.5" width="482" height="859" transform="rotate(90 1177.5 164.5)" fill="#D8EAD2" stroke="black"/>
<rect x="1261" y="668" width="400" height="80" transform="rotate(90 1261 668)" fill="#FEFBF6"/>
<rect x="1181" y="1068" width="525" height="901" transform="rotate(90 1181 1068)" fill="#FEFBF6"/>
<rect x="1261" y="1068" width="525" height="80" transform="rotate(90 1261 1068)" fill="#FEFBF6"/>
<rect x="1177.5" y="1089.5" width="482" height="859" transform="rotate(90 1177.5 1089.5)" fill="#D8EAD2" stroke="black"/>
<rect x="1261" y="1593" width="594" height="80" transform="rotate(90 1261 1593)" fill="#FEFBF6"/>
<rect x="1217" y="1993" width="571" height="937" transform="rotate(90 1217 1993)" fill="#FEFBF6"/>
<rect x="1177.5" y="2037.5" width="482" height="859" transform="rotate(90 1177.5 2037.5)" fill="#D8EAD2" stroke="black"/>
<rect x="1588" y="1993" width="195" height="334" transform="rotate(90 1588 1993)" fill="#FEFBF6"/>
<rect x="1587.5" y="1993.5" width="96" height="79" transform="rotate(90 1587.5 1993.5)" fill="#9BD6EF" stroke="black"/>
<rect x="1587.5" y="2089.5" width="98" height="79" transform="rotate(90 1587.5 2089.5)" fill="#9BD6EF" stroke="black"/>
<rect x="1508" y="2188" width="376" height="291" transform="rotate(90 1508 2188)" fill="#FEFBF6"/>
<rect x="1507.5" y="2300.5" width="219" height="114" transform="rotate(90 1507.5 2300.5)" fill="#9BD6EF" stroke="black"/>
</g>
<defs>
<clipPath id="clip0_375_8139">
<rect width="2707" height="1869" fill="white" transform="matrix(0 1 -1 0 1869 0)"/>
</clipPath>
</defs>
</svg>
