<svg width="1869" height="2707" viewBox="0 0 1869 2707" fill="none" xmlns="http://www.w3.org/2000/svg">
<g clip-path="url(#clip0_375_8140)">
<rect width="2707" height="1869" transform="matrix(0 1 -1 0 1869 0)" fill="#E5E7EB"/>
<rect x="1181" y="165" width="525" height="894" transform="rotate(90 1181 165)" fill="#FEFBF6"/>
<rect x="403.5" y="489.5" width="53.4737" height="49" transform="rotate(90 403.5 489.5)" fill="#D8EAD2" stroke="black"/>
<rect x="403.5" y="542.79" width="105.579" height="49" transform="rotate(90 403.5 542.79)" fill="#FFE9A0" stroke="black"/>
<rect x="493.5" y="489.5" width="53.4737" height="57" transform="rotate(90 493.5 489.5)" fill="#D8EAD2" stroke="black"/>
<rect x="493.5" y="542.79" width="53.4737" height="57" transform="rotate(90 493.5 542.79)" fill="#D8EAD2" stroke="black"/>
<rect x="493.5" y="596.079" width="52.2895" height="57" transform="rotate(90 493.5 596.079)" fill="#D8EAD2" stroke="black"/>
<rect x="433.5" y="302.553" width="62.9474" height="49" transform="rotate(90 433.5 302.553)" fill="#FFE9A0" stroke="black"/>
<rect x="433.5" y="268.211" width="34.5263" height="49" transform="rotate(90 433.5 268.211)" fill="#D8EAD2" stroke="black"/>
<rect x="433.5" y="239.789" width="28.6053" height="49" transform="rotate(90 433.5 239.789)" fill="#D8EAD2" stroke="black"/>
<rect x="433.5" y="186.5" width="53.4737" height="79" transform="rotate(90 433.5 186.5)" fill="#FFE9A0" stroke="black"/>
<rect x="552.5" y="489.5" width="159" height="59" transform="rotate(90 552.5 489.5)" fill="#9BD6EF" stroke="black"/>
<rect x="580.5" y="186.5" width="179" height="147" transform="rotate(90 580.5 186.5)" fill="#C6B8E7" stroke="black"/>
<rect x="730.5" y="186.5" width="179" height="147" transform="rotate(90 730.5 186.5)" fill="#C6B8E7" stroke="black"/>
<rect x="731.5" y="489.5" width="179" height="179" transform="rotate(90 731.5 489.5)" fill="#C6B8E7" stroke="black"/>
<rect x="880.5" y="186.5" width="179" height="147" transform="rotate(90 880.5 186.5)" fill="#C6B8E7" stroke="black"/>
<rect x="881.5" y="489.5" width="179" height="147" transform="rotate(90 881.5 489.5)" fill="#C6B8E7" stroke="black"/>
<rect x="1030.5" y="186.5" width="179" height="147" transform="rotate(90 1030.5 186.5)" fill="#C6B8E7" stroke="black"/>
<rect x="1031.5" y="489.5" width="179" height="147" transform="rotate(90 1031.5 489.5)" fill="#C6B8E7" stroke="black"/>
<rect x="1180.5" y="186.5" width="179" height="147" transform="rotate(90 1180.5 186.5)" fill="#C6B8E7" stroke="black"/>
<rect x="1180.5" y="489.5" width="179" height="146" transform="rotate(90 1180.5 489.5)" fill="#C6B8E7" stroke="black"/>
<rect x="1461" y="165" width="525" height="280" transform="rotate(90 1461 165)" fill="#FEFBF6"/>
<rect x="1272.5" y="221.5" width="144" height="84" transform="rotate(90 1272.5 221.5)" fill="#9BD6EF" stroke="black"/>
<rect x="1261" y="690" width="400" height="80" transform="rotate(90 1261 690)" fill="#FEFBF6"/>
<rect x="1181" y="1090" width="525" height="901" transform="rotate(90 1181 1090)" fill="#FEFBF6"/>
<rect x="-0.5" y="-0.5" width="39.2632" height="49" transform="matrix(0 -1 -1 0 403 1290)" fill="#D8EAD2" stroke="black"/>
<rect x="-0.5" y="-0.5" width="139.921" height="49" transform="matrix(0 -1 -1 0 403 1250.92)" fill="#FFE9A0" stroke="black"/>
<rect x="-0.5" y="-0.5" width="39.2632" height="49" transform="matrix(0 -1 -1 0 485 1290)" fill="#D8EAD2" stroke="black"/>
<rect x="-0.5" y="-0.5" width="70.0526" height="49" transform="matrix(0 -1 -1 0 485 1250.92)" fill="#D8EAD2" stroke="black"/>
<rect x="-0.5" y="-0.5" width="70.0526" height="49" transform="matrix(0 -1 -1 0 485 1181.05)" fill="#D8EAD2" stroke="black"/>
<rect x="-0.5" y="-0.5" width="64.1316" height="49" transform="matrix(0 -1 -1 0 433 1478.13)" fill="#FFE9A0" stroke="black"/>
<mask id="path-31-inside-1_375_8140" fill="white">
<path d="M434 1477.95H384V1522.21H354V1594H434V1477.95Z"/>
</mask>
<path d="M434 1477.95H384V1522.21H354V1594H434V1477.95Z" fill="#FFE9A0"/>
<path d="M434 1477.95V1476.95H435V1477.95H434ZM384 1477.95H383V1476.95H384V1477.95ZM384 1522.21H385V1523.21H384V1522.21ZM354 1522.21H353V1521.21H354V1522.21ZM354 1594V1595H353V1594H354ZM434 1594H435V1595H434V1594ZM434 1477.95V1478.95H384V1477.95V1476.95H434V1477.95ZM384 1477.95H385V1522.21H384H383V1477.95H384ZM384 1522.21V1523.21H354V1522.21V1521.21H384V1522.21ZM354 1522.21H355V1594H354H353V1522.21H354ZM354 1594V1593H434V1594V1595H354V1594ZM434 1594H433V1477.95H434H435V1594H434Z" fill="black" mask="url(#path-31-inside-1_375_8140)"/>
<rect x="-0.5" y="-0.5" width="179" height="68" transform="matrix(0 -1 -1 0 553 1290)" fill="#9BD6EF" stroke="black"/>
<rect x="-0.5" y="-0.5" width="179" height="144" transform="matrix(0 -1 -1 0 577 1593)" fill="#BACBDD" stroke="black"/>
<rect x="-0.5" y="-0.5" width="179" height="144" transform="matrix(0 -1 -1 0 726 1593)" fill="#BACBDD" stroke="black"/>
<rect x="-0.5" y="-0.5" width="179" height="173" transform="matrix(0 -1 -1 0 726 1290)" fill="#BACBDD" stroke="black"/>
<rect x="-0.5" y="-0.5" width="179" height="144" transform="matrix(0 -1 -1 0 875 1593)" fill="#BACBDD" stroke="black"/>
<rect x="-0.5" y="-0.5" width="179" height="144" transform="matrix(0 -1 -1 0 875 1290)" fill="#BACBDD" stroke="black"/>
<rect x="-0.5" y="-0.5" width="179" height="144" transform="matrix(0 -1 -1 0 1024 1593)" fill="#BACBDD" stroke="black"/>
<rect x="-0.5" y="-0.5" width="179" height="144" transform="matrix(0 -1 -1 0 1024 1290)" fill="#BACBDD" stroke="black"/>
<rect x="-0.5" y="-0.5" width="179" height="144" transform="matrix(0 -1 -1 0 1173 1593)" fill="#BACBDD" stroke="black"/>
<rect x="-0.5" y="-0.5" width="179" height="144" transform="matrix(0 -1 -1 0 1173 1290)" fill="#BACBDD" stroke="black"/>
<rect x="1461" y="1090" width="525" height="280" transform="rotate(90 1461 1090)" fill="#FEFBF6"/>
<rect x="1261" y="1615" width="594" height="80" transform="rotate(90 1261 1615)" fill="#FEFBF6"/>
<rect x="1217" y="2015" width="525" height="937" transform="rotate(90 1217 2015)" fill="#FEFBF6"/>
<rect x="1177.5" y="2036.5" width="482" height="859" transform="rotate(90 1177.5 2036.5)" fill="#D8EAD2" stroke="black"/>
<rect x="1588" y="2015" width="195" height="334" transform="rotate(90 1588 2015)" fill="#FEFBF6"/>
<rect x="1415.5" y="2015.5" width="76" height="154" transform="rotate(90 1415.5 2015.5)" fill="#9BD6EF" stroke="black"/>
<rect x="1587.5" y="2015.5" width="96" height="79" transform="rotate(90 1587.5 2015.5)" fill="#9BD6EF" stroke="black"/>
<rect x="1587.5" y="2111.5" width="98" height="79" transform="rotate(90 1587.5 2111.5)" fill="#9BD6EF" stroke="black"/>
<rect x="1588" y="2210" width="112" height="371" transform="rotate(90 1588 2210)" fill="#FEFBF6"/>
<rect x="1507.5" y="2322.5" width="219" height="114" transform="rotate(90 1507.5 2322.5)" fill="#9BD6EF" stroke="black"/>
</g>
<defs>
<clipPath id="clip0_375_8140">
<rect width="2707" height="1869" fill="white" transform="matrix(0 1 -1 0 1869 0)"/>
</clipPath>
</defs>
</svg>
