<svg width="1869" height="2707" viewBox="0 0 1869 2707" fill="none" xmlns="http://www.w3.org/2000/svg">
<g clip-path="url(#clip0_375_8141)">
<rect width="2707" height="1869" transform="matrix(0 1 -1 0 1869 0)" fill="#E5E7EB"/>
<rect x="1181" y="166" width="525" height="894" transform="rotate(90 1181 166)" fill="#FEFBF6"/>
<rect x="403.5" y="490.5" width="53.4737" height="49" transform="rotate(90 403.5 490.5)" fill="#D8EAD2" stroke="black"/>
<rect x="403.5" y="543.79" width="105.579" height="49" transform="rotate(90 403.5 543.79)" fill="#FFE9A0" stroke="black"/>
<rect x="493.5" y="490.5" width="53.4737" height="57" transform="rotate(90 493.5 490.5)" fill="#D8EAD2" stroke="black"/>
<rect x="493.5" y="543.79" width="53.4737" height="57" transform="rotate(90 493.5 543.79)" fill="#D8EAD2" stroke="black"/>
<rect x="493.5" y="597.079" width="52.2895" height="57" transform="rotate(90 493.5 597.079)" fill="#D8EAD2" stroke="black"/>
<rect x="433.5" y="303.553" width="62.9474" height="49" transform="rotate(90 433.5 303.553)" fill="#FFE9A0" stroke="black"/>
<rect x="433.5" y="269.211" width="34.5263" height="49" transform="rotate(90 433.5 269.211)" fill="#D8EAD2" stroke="black"/>
<rect x="433.5" y="240.789" width="28.6053" height="49" transform="rotate(90 433.5 240.789)" fill="#D8EAD2" stroke="black"/>
<rect x="433.5" y="187.5" width="53.4737" height="79" transform="rotate(90 433.5 187.5)" fill="#FFE9A0" stroke="black"/>
<rect x="552.5" y="490.5" width="159" height="59" transform="rotate(90 552.5 490.5)" fill="#9BD6EF" stroke="black"/>
<rect x="580.5" y="187.5" width="179" height="147" transform="rotate(90 580.5 187.5)" fill="#C6B8E7" stroke="black"/>
<rect x="730.5" y="187.5" width="179" height="147" transform="rotate(90 730.5 187.5)" fill="#C6B8E7" stroke="black"/>
<rect x="731.5" y="490.5" width="179" height="179" transform="rotate(90 731.5 490.5)" fill="#C6B8E7" stroke="black"/>
<rect x="880.5" y="187.5" width="179" height="147" transform="rotate(90 880.5 187.5)" fill="#C6B8E7" stroke="black"/>
<rect x="881.5" y="490.5" width="179" height="147" transform="rotate(90 881.5 490.5)" fill="#C6B8E7" stroke="black"/>
<rect x="1030.5" y="187.5" width="179" height="147" transform="rotate(90 1030.5 187.5)" fill="#C6B8E7" stroke="black"/>
<rect x="1031.5" y="490.5" width="179" height="147" transform="rotate(90 1031.5 490.5)" fill="#C6B8E7" stroke="black"/>
<rect x="1180.5" y="187.5" width="179" height="147" transform="rotate(90 1180.5 187.5)" fill="#C6B8E7" stroke="black"/>
<rect x="1180.5" y="490.5" width="179" height="146" transform="rotate(90 1180.5 490.5)" fill="#C6B8E7" stroke="black"/>
<rect x="1461" y="166" width="525" height="280" transform="rotate(90 1461 166)" fill="#FEFBF6"/>
<rect x="1272.5" y="222.5" width="144" height="84" transform="rotate(90 1272.5 222.5)" fill="#9BD6EF" stroke="black"/>
<rect x="1261" y="691" width="400" height="80" transform="rotate(90 1261 691)" fill="#FEFBF6"/>
<rect x="1181" y="1091" width="525" height="901" transform="rotate(90 1181 1091)" fill="#FEFBF6"/>
<rect x="-0.5" y="-0.5" width="39.2632" height="49" transform="matrix(0 -1 -1 0 403 1291)" fill="#D8EAD2" stroke="black"/>
<rect x="-0.5" y="-0.5" width="139.921" height="49" transform="matrix(0 -1 -1 0 403 1251.92)" fill="#FFE9A0" stroke="black"/>
<rect x="-0.5" y="-0.5" width="39.2632" height="58" transform="matrix(0 -1 -1 0 494 1291)" fill="#D8EAD2" stroke="black"/>
<rect x="-0.5" y="-0.5" width="70.0526" height="58" transform="matrix(0 -1 -1 0 494 1251.92)" fill="#D8EAD2" stroke="black"/>
<rect x="-0.5" y="-0.5" width="70.0526" height="58" transform="matrix(0 -1 -1 0 494 1182.05)" fill="#D8EAD2" stroke="black"/>
<rect x="-0.5" y="-0.5" width="64.1316" height="49" transform="matrix(0 -1 -1 0 433 1479.13)" fill="#FFE9A0" stroke="black"/>
<mask id="path-31-inside-1_375_8141" fill="white">
<path d="M434 1478.95H384V1523.21H354V1595H434V1478.95Z"/>
</mask>
<path d="M434 1478.95H384V1523.21H354V1595H434V1478.95Z" fill="#FFE9A0"/>
<path d="M434 1478.95V1477.95H435V1478.95H434ZM384 1478.95H383V1477.95H384V1478.95ZM384 1523.21H385V1524.21H384V1523.21ZM354 1523.21H353V1522.21H354V1523.21ZM354 1595V1596H353V1595H354ZM434 1595H435V1596H434V1595ZM434 1478.95V1479.95H384V1478.95V1477.95H434V1478.95ZM384 1478.95H385V1523.21H384H383V1478.95H384ZM384 1523.21V1524.21H354V1523.21V1522.21H384V1523.21ZM354 1523.21H355V1595H354H353V1523.21H354ZM354 1595V1594H434V1595V1596H354V1595ZM434 1595H433V1478.95H434H435V1595H434Z" fill="black" mask="url(#path-31-inside-1_375_8141)"/>
<rect x="-0.5" y="-0.5" width="179" height="59" transform="matrix(0 -1 -1 0 553 1291)" fill="#9BD6EF" stroke="black"/>
<rect x="-0.5" y="-0.5" width="179" height="144" transform="matrix(0 -1 -1 0 577 1594)" fill="#BACBDD" stroke="black"/>
<rect x="-0.5" y="-0.5" width="179" height="144" transform="matrix(0 -1 -1 0 726 1594)" fill="#BACBDD" stroke="black"/>
<rect x="-0.5" y="-0.5" width="179" height="134" transform="matrix(0 -1 -1 0 687 1291)" fill="#BACBDD" stroke="black"/>
<rect x="-0.5" y="-0.5" width="349" height="144" transform="matrix(0 -1 -1 0 875 1594)" fill="#BACBDD" stroke="black"/>
<rect x="-0.5" y="-0.5" width="349" height="144" transform="matrix(0 -1 -1 0 1024 1594)" fill="#BACBDD" stroke="black"/>
<rect x="-0.5" y="-0.5" width="349" height="144" transform="matrix(0 -1 -1 0 1173 1594)" fill="#BACBDD" stroke="black"/>
<rect x="1461" y="1091" width="525" height="280" transform="rotate(90 1461 1091)" fill="#FEFBF6"/>
<rect x="1261" y="1616" width="594" height="80" transform="rotate(90 1261 1616)" fill="#FEFBF6"/>
<rect x="1588" y="2016" width="525" height="1308" transform="rotate(90 1588 2016)" fill="#FEFBF6"/>
<mask id="path-43-inside-2_375_8141" fill="white">
<path d="M318 2520V2037H1178V2188H1507V2520H318Z"/>
</mask>
<path d="M318 2520V2037H1178V2188H1507V2520H318Z" fill="#D8EAD2"/>
<path d="M318 2520H317V2521H318V2520ZM318 2037V2036H317V2037H318ZM1178 2037H1179V2036H1178V2037ZM1178 2188H1177V2189H1178V2188ZM1507 2188H1508V2187H1507V2188ZM1507 2520V2521H1508V2520H1507ZM318 2520H319V2037H318H317V2520H318ZM318 2037V2038H1178V2037V2036H318V2037ZM1178 2037H1177V2188H1178H1179V2037H1178ZM1178 2188V2189H1507V2188V2187H1178V2188ZM1507 2188H1506V2520H1507H1508V2188H1507ZM1507 2520V2519H318V2520V2521H1507V2520Z" fill="black" mask="url(#path-43-inside-2_375_8141)"/>
<rect x="1588" y="2016" width="171" height="410" transform="rotate(90 1588 2016)" fill="#FEFBF6"/>
<rect x="1415.5" y="2016.5" width="76" height="154" transform="rotate(90 1415.5 2016.5)" fill="#9BD6EF" stroke="black"/>
<rect x="1587.5" y="2016.5" width="86" height="80" transform="rotate(90 1587.5 2016.5)" fill="#9BD6EF" stroke="black"/>
<rect x="1587.5" y="2102.5" width="86" height="80" transform="rotate(90 1587.5 2102.5)" fill="#9BD6EF" stroke="black"/>
</g>
<defs>
<clipPath id="clip0_375_8141">
<rect width="2707" height="1869" fill="white" transform="matrix(0 1 -1 0 1869 0)"/>
</clipPath>
</defs>
</svg>
